<svg width="782" height="64" viewBox="0 0 782 64" fill="none" xmlns="http://www.w3.org/2000/svg">
<path d="M0.327148 13.28V0.499996H107.247V22.82L83.7572 19.58V13.28H37.2272V50.72H83.7572V42.17H64.7672V29.39H107.247V63.5H13.7371V13.28H0.327148ZM124.355 63.5V39.65L182.405 32.45V27.5H146.855V31.55L124.355 33.8V15.8H204.905V63.5H188.795L184.205 59L179.705 63.5H124.355ZM146.855 51.8H182.405V43.34L146.855 47.75V51.8ZM221.122 63.5V15.8H237.232L241.822 20.3L246.322 15.8H269.272L279.172 20.75L289.072 15.8H315.172L337.222 26.6V63.5H314.722V30.2L309.322 27.5H294.922L290.422 29.75V63.5H267.922V29.75L263.422 27.5H243.622V63.5H221.122ZM344.419 27.5V15.8H435.319V39.65L378.169 47.75V51.8H412.819V47.75L435.319 45.5V63.5H355.669V27.5H344.419ZM378.169 36.14L412.819 31.55V27.5H378.169V36.14ZM479.419 13.28V0.499996H516.319V25.43H562.759V0.499996H586.249V63.5H562.759V38.21H516.319V63.5H492.829V13.28H479.419ZM595.259 27.5V15.8H629.009V49.1L634.409 51.8H664.559V15.8H687.059V63.5H670.949L666.359 59L661.859 63.5H628.559L606.509 52.7V27.5H595.259ZM689.741 12.2V0.499996H723.491V14L781.541 21.2V63.5H726.191L721.691 59L717.101 63.5H700.991V12.2H689.741ZM723.491 51.8H759.041V29.75L723.491 25.25V51.8Z" fill="black"/>
<path d="M0.327148 13.28H-0.672852V14.28H0.327148V13.28ZM0.327148 0.499996V-0.500004H-0.672852V0.499996H0.327148ZM107.247 0.499996H108.247V-0.500004H107.247V0.499996ZM107.247 22.82L107.111 23.8106L108.247 23.9674V22.82H107.247ZM83.7572 19.58H82.7572V20.4515L83.6205 20.5706L83.7572 19.58ZM83.7572 13.28H84.7572V12.28H83.7572V13.28ZM37.2271 13.28V12.28H36.2271V13.28H37.2271ZM37.2271 50.72H36.2271V51.72H37.2271V50.72ZM83.7572 50.72V51.72H84.7572V50.72H83.7572ZM83.7572 42.17H84.7572V41.17H83.7572V42.17ZM64.7672 42.17H63.7672V43.17H64.7672V42.17ZM64.7672 29.39V28.39H63.7672V29.39H64.7672ZM107.247 29.39H108.247V28.39H107.247V29.39ZM107.247 63.5V64.5H108.247V63.5H107.247ZM13.7371 63.5H12.7371V64.5H13.7371V63.5ZM13.7371 13.28H14.7371V12.28H13.7371V13.28ZM1.32715 13.28V0.499996H-0.672852V13.28H1.32715ZM0.327148 1.5H107.247V-0.500004H0.327148V1.5ZM106.247 0.499996V22.82H108.247V0.499996H106.247ZM107.384 21.8294L83.8938 18.5894L83.6205 20.5706L107.111 23.8106L107.384 21.8294ZM84.7572 19.58V13.28H82.7572V19.58H84.7572ZM83.7572 12.28H37.2271V14.28H83.7572V12.28ZM36.2271 13.28V50.72H38.2271V13.28H36.2271ZM37.2271 51.72H83.7572V49.72H37.2271V51.72ZM84.7572 50.72V42.17H82.7572V50.72H84.7572ZM83.7572 41.17H64.7672V43.17H83.7572V41.17ZM65.7672 42.17V29.39H63.7672V42.17H65.7672ZM64.7672 30.39H107.247V28.39H64.7672V30.39ZM106.247 29.39V63.5H108.247V29.39H106.247ZM107.247 62.5H13.7371V64.5H107.247V62.5ZM14.7371 63.5V13.28H12.7371V63.5H14.7371ZM13.7371 12.28H0.327148V14.28H13.7371V12.28ZM124.355 63.5H123.355V64.5H124.355V63.5ZM124.355 39.65L124.232 38.6576L123.355 38.7664V39.65H124.355ZM182.405 32.45L182.528 33.4424L183.405 33.3336V32.45H182.405ZM182.405 27.5H183.405V26.5H182.405V27.5ZM146.855 27.5V26.5H145.855V27.5H146.855ZM146.855 31.55L146.954 32.545L147.855 32.455V31.55H146.855ZM124.355 33.8H123.355V34.905L124.454 34.795L124.355 33.8ZM124.355 15.8V14.8H123.355V15.8H124.355ZM204.905 15.8H205.905V14.8H204.905V15.8ZM204.905 63.5V64.5H205.905V63.5H204.905ZM188.795 63.5L188.095 64.2141L188.386 64.5H188.795V63.5ZM184.205 59L184.905 58.2859L184.198 57.5928L183.498 58.2929L184.205 59ZM179.705 63.5V64.5H180.119L180.412 64.2071L179.705 63.5ZM146.855 51.8H145.855V52.8H146.855V51.8ZM182.405 51.8V52.8H183.405V51.8H182.405ZM182.405 43.34H183.405V42.2083L182.282 42.3476L182.405 43.34ZM146.855 47.75L146.732 46.7576L145.855 46.8664V47.75H146.855ZM125.355 63.5V39.65H123.355V63.5H125.355ZM124.478 40.6424L182.528 33.4424L182.282 31.4576L124.232 38.6576L124.478 40.6424ZM183.405 32.45V27.5H181.405V32.45H183.405ZM182.405 26.5H146.855V28.5H182.405V26.5ZM145.855 27.5V31.55H147.855V27.5H145.855ZM146.755 30.555L124.255 32.805L124.454 34.795L146.954 32.545L146.755 30.555ZM125.355 33.8V15.8H123.355V33.8H125.355ZM124.355 16.8H204.905V14.8H124.355V16.8ZM203.905 15.8V63.5H205.905V15.8H203.905ZM204.905 62.5H188.795V64.5H204.905V62.5ZM189.495 62.7859L184.905 58.2859L183.505 59.7141L188.095 64.2141L189.495 62.7859ZM183.498 58.2929L178.998 62.7929L180.412 64.2071L184.912 59.7071L183.498 58.2929ZM179.705 62.5H124.355V64.5H179.705V62.5ZM146.855 52.8H182.405V50.8H146.855V52.8ZM183.405 51.8V43.34H181.405V51.8H183.405ZM182.282 42.3476L146.732 46.7576L146.978 48.7424L182.528 44.3324L182.282 42.3476ZM145.855 47.75V51.8H147.855V47.75H145.855ZM221.122 63.5H220.122V64.5H221.122V63.5ZM221.122 15.8V14.8H220.122V15.8H221.122ZM237.232 15.8L237.933 15.0859L237.641 14.8H237.232V15.8ZM241.822 20.3L241.122 21.0141L241.829 21.7072L242.53 21.0071L241.822 20.3ZM246.322 15.8V14.8H245.908L245.615 15.0929L246.322 15.8ZM269.272 15.8L269.72 14.9056L269.509 14.8H269.272V15.8ZM279.172 20.75L278.725 21.6444L279.172 21.868L279.62 21.6444L279.172 20.75ZM289.072 15.8V14.8H288.836L288.625 14.9056L289.072 15.8ZM315.172 15.8L315.612 14.9019L315.404 14.8H315.172V15.8ZM337.222 26.6H338.222V25.9763L337.662 25.7019L337.222 26.6ZM337.222 63.5V64.5H338.222V63.5H337.222ZM314.722 63.5H313.722V64.5H314.722V63.5ZM314.722 30.2H315.722V29.582L315.17 29.3056L314.722 30.2ZM309.322 27.5L309.77 26.6056L309.559 26.5H309.322V27.5ZM294.922 27.5V26.5H294.686L294.475 26.6056L294.922 27.5ZM290.422 29.75L289.975 28.8556L289.422 29.132V29.75H290.422ZM290.422 63.5V64.5H291.422V63.5H290.422ZM267.922 63.5H266.922V64.5H267.922V63.5ZM267.922 29.75H268.922V29.132L268.37 28.8556L267.922 29.75ZM263.422 27.5L263.87 26.6056L263.659 26.5H263.422V27.5ZM243.622 27.5V26.5H242.622V27.5H243.622ZM243.622 63.5V64.5H244.622V63.5H243.622ZM222.122 63.5V15.8H220.122V63.5H222.122ZM221.122 16.8H237.232V14.8H221.122V16.8ZM236.532 16.5141L241.122 21.0141L242.523 19.5859L237.933 15.0859L236.532 16.5141ZM242.53 21.0071L247.03 16.5071L245.615 15.0929L241.115 19.5929L242.53 21.0071ZM246.322 16.8H269.272V14.8H246.322V16.8ZM268.825 16.6944L278.725 21.6444L279.62 19.8556L269.72 14.9056L268.825 16.6944ZM279.62 21.6444L289.52 16.6944L288.625 14.9056L278.725 19.8556L279.62 21.6444ZM289.072 16.8H315.172V14.8H289.072V16.8ZM314.733 16.6981L336.783 27.4981L337.662 25.7019L315.612 14.9019L314.733 16.6981ZM336.222 26.6V63.5H338.222V26.6H336.222ZM337.222 62.5H314.722V64.5H337.222V62.5ZM315.722 63.5V30.2H313.722V63.5H315.722ZM315.17 29.3056L309.77 26.6056L308.875 28.3944L314.275 31.0944L315.17 29.3056ZM309.322 26.5H294.922V28.5H309.322V26.5ZM294.475 26.6056L289.975 28.8556L290.87 30.6444L295.37 28.3944L294.475 26.6056ZM289.422 29.75V63.5H291.422V29.75H289.422ZM290.422 62.5H267.922V64.5H290.422V62.5ZM268.922 63.5V29.75H266.922V63.5H268.922ZM268.37 28.8556L263.87 26.6056L262.975 28.3944L267.475 30.6444L268.37 28.8556ZM263.422 26.5H243.622V28.5H263.422V26.5ZM242.622 27.5V63.5H244.622V27.5H242.622ZM243.622 62.5H221.122V64.5H243.622V62.5ZM344.419 27.5H343.419V28.5H344.419V27.5ZM344.419 15.8V14.8H343.419V15.8H344.419ZM435.319 15.8H436.319V14.8H435.319V15.8ZM435.319 39.65L435.459 40.6401L436.319 40.5183V39.65H435.319ZM378.169 47.75L378.029 46.7599L377.169 46.8817V47.75H378.169ZM378.169 51.8H377.169V52.8H378.169V51.8ZM412.819 51.8V52.8H413.819V51.8H412.819ZM412.819 47.75L412.719 46.755L411.819 46.845V47.75H412.819ZM435.319 45.5H436.319V44.395L435.219 44.505L435.319 45.5ZM435.319 63.5V64.5H436.319V63.5H435.319ZM355.669 63.5H354.669V64.5H355.669V63.5ZM355.669 27.5H356.669V26.5H355.669V27.5ZM378.169 36.14H377.169V37.2812L378.3 37.1313L378.169 36.14ZM412.819 31.55L412.95 32.5413L413.819 32.4263V31.55H412.819ZM412.819 27.5H413.819V26.5H412.819V27.5ZM378.169 27.5V26.5H377.169V27.5H378.169ZM345.419 27.5V15.8H343.419V27.5H345.419ZM344.419 16.8H435.319V14.8H344.419V16.8ZM434.319 15.8V39.65H436.319V15.8H434.319ZM435.179 38.6599L378.029 46.7599L378.309 48.7401L435.459 40.6401L435.179 38.6599ZM377.169 47.75V51.8H379.169V47.75H377.169ZM378.169 52.8H412.819V50.8H378.169V52.8ZM413.819 51.8V47.75H411.819V51.8H413.819ZM412.918 48.745L435.418 46.495L435.219 44.505L412.719 46.755L412.918 48.745ZM434.319 45.5V63.5H436.319V45.5H434.319ZM435.319 62.5H355.669V64.5H435.319V62.5ZM356.669 63.5V27.5H354.669V63.5H356.669ZM355.669 26.5H344.419V28.5H355.669V26.5ZM378.3 37.1313L412.95 32.5413L412.688 30.5587L378.038 35.1487L378.3 37.1313ZM413.819 31.55V27.5H411.819V31.55H413.819ZM412.819 26.5H378.169V28.5H412.819V26.5ZM377.169 27.5V36.14H379.169V27.5H377.169ZM479.419 13.28H478.419V14.28H479.419V13.28ZM479.419 0.499996V-0.500004H478.419V0.499996H479.419ZM516.319 0.499996H517.319V-0.500004H516.319V0.499996ZM516.319 25.43H515.319V26.43H516.319V25.43ZM562.759 25.43V26.43H563.759V25.43H562.759ZM562.759 0.499996V-0.500004H561.759V0.499996H562.759ZM586.249 0.499996H587.249V-0.500004H586.249V0.499996ZM586.249 63.5V64.5H587.249V63.5H586.249ZM562.759 63.5H561.759V64.5H562.759V63.5ZM562.759 38.21H563.759V37.21H562.759V38.21ZM516.319 38.21V37.21H515.319V38.21H516.319ZM516.319 63.5V64.5H517.319V63.5H516.319ZM492.829 63.5H491.829V64.5H492.829V63.5ZM492.829 13.28H493.829V12.28H492.829V13.28ZM480.419 13.28V0.499996H478.419V13.28H480.419ZM479.419 1.5H516.319V-0.500004H479.419V1.5ZM515.319 0.499996V25.43H517.319V0.499996H515.319ZM516.319 26.43H562.759V24.43H516.319V26.43ZM563.759 25.43V0.499996H561.759V25.43H563.759ZM562.759 1.5H586.249V-0.500004H562.759V1.5ZM585.249 0.499996V63.5H587.249V0.499996H585.249ZM586.249 62.5H562.759V64.5H586.249V62.5ZM563.759 63.5V38.21H561.759V63.5H563.759ZM562.759 37.21H516.319V39.21H562.759V37.21ZM515.319 38.21V63.5H517.319V38.21H515.319ZM516.319 62.5H492.829V64.5H516.319V62.5ZM493.829 63.5V13.28H491.829V63.5H493.829ZM492.829 12.28H479.419V14.28H492.829V12.28ZM595.259 27.5H594.259V28.5H595.259V27.5ZM595.259 15.8V14.8H594.259V15.8H595.259ZM629.009 15.8H630.009V14.8H629.009V15.8ZM629.009 49.1H628.009V49.718L628.562 49.9944L629.009 49.1ZM634.409 51.8L633.962 52.6944L634.173 52.8H634.409V51.8ZM664.559 51.8V52.8H665.559V51.8H664.559ZM664.559 15.8V14.8H663.559V15.8H664.559ZM687.059 15.8H688.059V14.8H687.059V15.8ZM687.059 63.5V64.5H688.059V63.5H687.059ZM670.949 63.5L670.249 64.2141L670.54 64.5H670.949V63.5ZM666.359 59L667.059 58.2859L666.352 57.5928L665.652 58.2929L666.359 59ZM661.859 63.5V64.5H662.273L662.566 64.2071L661.859 63.5ZM628.559 63.5L628.119 64.3981L628.327 64.5H628.559V63.5ZM606.509 52.7H605.509V53.3237L606.069 53.5981L606.509 52.7ZM606.509 27.5H607.509V26.5H606.509V27.5ZM596.259 27.5V15.8H594.259V27.5H596.259ZM595.259 16.8H629.009V14.8H595.259V16.8ZM628.009 15.8V49.1H630.009V15.8H628.009ZM628.562 49.9944L633.962 52.6944L634.856 50.9056L629.456 48.2056L628.562 49.9944ZM634.409 52.8H664.559V50.8H634.409V52.8ZM665.559 51.8V15.8H663.559V51.8H665.559ZM664.559 16.8H687.059V14.8H664.559V16.8ZM686.059 15.8V63.5H688.059V15.8H686.059ZM687.059 62.5H670.949V64.5H687.059V62.5ZM671.649 62.7859L667.059 58.2859L665.659 59.7141L670.249 64.2141L671.649 62.7859ZM665.652 58.2929L661.152 62.7929L662.566 64.2071L667.066 59.7071L665.652 58.2929ZM661.859 62.5H628.559V64.5H661.859V62.5ZM628.999 62.6019L606.949 51.8019L606.069 53.5981L628.119 64.3981L628.999 62.6019ZM607.509 52.7V27.5H605.509V52.7H607.509ZM606.509 26.5H595.259V28.5H606.509V26.5ZM689.741 12.2H688.741V13.2H689.741V12.2ZM689.741 0.499996V-0.500004H688.741V0.499996H689.741ZM723.491 0.499996H724.491V-0.500004H723.491V0.499996ZM723.491 14H722.491V14.8836L723.368 14.9924L723.491 14ZM781.541 21.2H782.541V20.3164L781.664 20.2076L781.541 21.2ZM781.541 63.5V64.5H782.541V63.5H781.541ZM726.191 63.5L725.484 64.2071L725.777 64.5H726.191V63.5ZM721.691 59L722.398 58.2929L721.698 57.5928L720.991 58.2859L721.691 59ZM717.101 63.5V64.5H717.51L717.801 64.2141L717.101 63.5ZM700.991 63.5H699.991V64.5H700.991V63.5ZM700.991 12.2H701.991V11.2H700.991V12.2ZM723.491 51.8H722.491V52.8H723.491V51.8ZM759.041 51.8V52.8H760.041V51.8H759.041ZM759.041 29.75H760.041V28.8686L759.167 28.7579L759.041 29.75ZM723.491 25.25L723.617 24.2579L722.491 24.1154V25.25H723.491ZM690.741 12.2V0.499996H688.741V12.2H690.741ZM689.741 1.5H723.491V-0.500004H689.741V1.5ZM722.491 0.499996V14H724.491V0.499996H722.491ZM723.368 14.9924L781.418 22.1924L781.664 20.2076L723.614 13.0076L723.368 14.9924ZM780.541 21.2V63.5H782.541V21.2H780.541ZM781.541 62.5H726.191V64.5H781.541V62.5ZM726.898 62.7929L722.398 58.2929L720.984 59.7071L725.484 64.2071L726.898 62.7929ZM720.991 58.2859L716.401 62.7859L717.801 64.2141L722.391 59.7141L720.991 58.2859ZM717.101 62.5H700.991V64.5H717.101V62.5ZM701.991 63.5V12.2H699.991V63.5H701.991ZM700.991 11.2H689.741V13.2H700.991V11.2ZM723.491 52.8H759.041V50.8H723.491V52.8ZM760.041 51.8V29.75H758.041V51.8H760.041ZM759.167 28.7579L723.617 24.2579L723.366 26.2421L758.916 30.7421L759.167 28.7579ZM722.491 25.25V51.8H724.491V25.25H722.491Z" fill="url(#paint0_linear_450_4817)"/>
<defs>
<linearGradient id="paint0_linear_450_4817" x1="395" y1="-2.5" x2="395" y2="66.5" gradientUnits="userSpaceOnUse">
<stop stop-color="#3BCBD9"/>
<stop offset="1" stop-color="#822985"/>
</linearGradient>
</defs>
</svg>
